# xmcd
#
# Track frame offsets:
#	150
#	13047
#	28304
#	39783
#	58821
#	74368
#	87566
#	100644
#	118244
#	135151
#
# Disc length: 1913 seconds
#
# Revision: 1
# Processed by: cddbd v1.5.2PL0 Copyright (c) Steve Scherf et al.
# Submitted via: audiograbber 1.83.01
#
DISCID=8207770a
DTITLE=Lisa Layne - Lisa Layne
DYEAR=2000
DGENRE=Country
TTITLE0=I Fall To Pieces
TTITLE1=A Picture Of Me Without Him
TTITLE2=That's What I lIke About You
TTITLE3=Cry
TTITLE4=Love Sneakin' Up On You
TTITLE5=She's Got You
TTITLE6=Except For Monday
TTITLE7=Midnight Train To Georgia
TTITLE8=All I want For Christms
TTITLE9=Zing! Went The Strings Of My Heart
EXTD=
EXTT0=
EXTT1=
EXTT2=
EXTT3=
EXTT4=
EXTT5=
EXTT6=
EXTT7=
EXTT8=
EXTT9=
PLAYORDER=
